<svg aria-hidden="true" style="position: absolute; width: 0; height: 0; overflow: hidden;" version="1.1" xmlns="http://www.w3.org/2000/svg" xmlns:xlink="http://www.w3.org/1999/xlink">
<defs>
<symbol id="icon-statistics" viewBox="0 0 32 32">
<path fill="#6e78e8" style="fill: var(--color1, #6e78e8)" d="M6.545 2.182h18.909c2.41 0 4.364 1.954 4.364 4.364v18.909c0 2.41-1.954 4.364-4.364 4.364h-18.909c-2.41 0-4.364-1.954-4.364-4.364v-18.909c0-2.41 1.954-4.364 4.364-4.364zM23.636 14.222c0.933 0 1.697-0.8 1.697-1.777s-0.764-1.777-1.697-1.777c-0.933 0-1.697 0.8-1.697 1.777 0 0.16 0.017 0.311 0.059 0.453l-3.012 3.164c-0.125-0.039-0.268-0.062-0.417-0.062-0.009 0-0.017 0-0.025 0l0.001-0c-0.153 0-0.305 0.017-0.441 0.062l-2.164-2.266c0.043-0.143 0.060-0.303 0.060-0.463 0-0.977-0.764-1.777-1.697-1.777s-1.697 0.8-1.697 1.777c0 0.16 0.017 0.32 0.060 0.463l-3.869 4.044c-0.123-0.040-0.265-0.063-0.412-0.063-0.007 0-0.015 0-0.022 0h0.001c-0.933 0-1.697 0.8-1.697 1.778s0.764 1.777 1.697 1.777 1.697-0.8 1.697-1.777c0-0.16-0.017-0.311-0.059-0.453l3.86-4.054c0.136 0.044 0.289 0.063 0.441 0.063s0.305-0.018 0.441-0.063l2.164 2.267c-0.038 0.131-0.059 0.281-0.059 0.436 0 0.009 0 0.018 0 0.027l-0-0.001c0 0.978 0.764 1.778 1.697 1.778s1.697-0.8 1.697-1.778c0-0.16-0.017-0.32-0.059-0.462l3.020-3.156c0.136 0.044 0.28 0.062 0.433 0.062z"></path>
</symbol>
<symbol id="icon-home" viewBox="0 0 32 32">
<path   d="M6.545 2.182c-2.41 0-4.364 1.954-4.364 4.364v0 18.909c0 2.41 1.954 4.364 4.364 4.364v0h18.909c2.41 0 4.364-1.954 4.364-4.364v0-18.909c0-2.41-1.954-4.364-4.364-4.364v0h-18.909zM13.769 17.716v5.961h-4.969v-7.948h-2.982l9.94-8.941 9.939 8.941h-2.982v7.948h-4.969v-5.961h-3.976z"></path>
</symbol>
<symbol id="icon-currency" viewBox="0 0 32 32">
<path fill="#6e78e8" style="fill: var(--color1, #6e78e8)" d="M6.545 2.182c-2.41 0-4.364 1.954-4.364 4.364v0 18.909c0 2.41 1.954 4.364 4.364 4.364v0h18.909c2.41 0 4.364-1.954 4.364-4.364v0-18.909c0-2.41-1.954-4.364-4.364-4.364v0h-18.909zM13.638 13.527c0 0.86 0.661 1.411 2.715 1.945s4.253 1.412 4.253 3.982c0 1.855-1.402 2.878-3.167 3.212v1.945h-2.715v-1.964c-1.737-0.371-3.222-1.484-3.329-3.465h1.991c0.1 1.068 0.833 1.9 2.697 1.9 2 0 2.444-0.995 2.444-1.62 0-0.841-0.453-1.638-2.715-2.18-2.525-0.607-4.254-1.647-4.254-3.738 0-1.745 1.412-2.886 3.167-3.266v-1.955h2.715v1.982c1.891 0.462 2.841 1.891 2.905 3.448h-2c-0.054-1.131-0.651-1.9-2.262-1.9-1.529 0-2.444 0.688-2.444 1.674z"></path>
</symbol>
</defs>
</svg>
