<svg aria-hidden="true" style="position: absolute; width: 0; height: 0; overflow: hidden;" version="1.1" xmlns="http://www.w3.org/2000/svg" xmlns:xlink="http://www.w3.org/1999/xlink">
<defs>
<symbol id="icon-statistics" viewBox="0 0 30 32">
<path fill="#6e78e8" style="fill: var(--color1, #6e78e8)" d="M6.531 1.959h16.98c2.164 0 3.918 1.754 3.918 3.918v16.98c0 2.164-1.754 3.918-3.918 3.918h-16.98c-2.164 0-3.918-1.754-3.918-3.918v-16.98c0-2.164 1.754-3.918 3.918-3.918zM21.878 12.771c0.838 0 1.524-0.718 1.524-1.596s-0.686-1.596-1.524-1.596c-0.838 0-1.524 0.718-1.524 1.596 0 0.144 0.015 0.28 0.053 0.407l-2.704 2.841c-0.112-0.035-0.241-0.056-0.375-0.056-0.008 0-0.015 0-0.023 0l0.001-0c-0.137 0-0.274 0.016-0.396 0.056l-1.943-2.035c0.039-0.128 0.054-0.272 0.054-0.415 0-0.878-0.686-1.596-1.524-1.596s-1.524 0.718-1.524 1.596c0 0.144 0.016 0.287 0.054 0.415l-3.474 3.632c-0.111-0.036-0.238-0.056-0.37-0.056-0.007 0-0.013 0-0.020 0h0.001c-0.838 0-1.524 0.718-1.524 1.597s0.686 1.596 1.524 1.596 1.524-0.718 1.524-1.596c0-0.144-0.015-0.279-0.053-0.407l3.466-3.64c0.122 0.040 0.259 0.056 0.396 0.056s0.274-0.016 0.396-0.056l1.943 2.036c-0.034 0.117-0.053 0.252-0.053 0.392 0 0.008 0 0.016 0 0.024v-0.001c0 0.878 0.686 1.597 1.524 1.597s1.524-0.718 1.524-1.597c0-0.144-0.015-0.287-0.053-0.415l2.712-2.834c0.122 0.040 0.251 0.056 0.389 0.056z"></path>
</symbol>
<symbol id="icon-home" viewBox="0 0 32 32">
<path  d="M6.545 2.182c-2.41 0-4.364 1.954-4.364 4.364v0 18.909c0 2.41 1.954 4.364 4.364 4.364v0h18.909c2.41 0 4.364-1.954 4.364-4.364v0-18.909c0-2.41-1.954-4.364-4.364-4.364v0h-18.909zM13.769 17.716v5.961h-4.969v-7.948h-2.982l9.94-8.941 9.939 8.941h-2.982v7.948h-4.969v-5.961h-3.976z"></path>
</symbol>
<symbol id="icon-currency" viewBox="0 0 32 32">
<path fill="#6e78e8" style="fill: var(--color1, #6e78e8)" d="M6.545 2.182c-2.41 0-4.364 1.954-4.364 4.364v0 18.909c0 2.41 1.954 4.364 4.364 4.364v0h18.909c2.41 0 4.364-1.954 4.364-4.364v0-18.909c0-2.41-1.954-4.364-4.364-4.364v0h-18.909zM13.638 13.527c0 0.86 0.661 1.411 2.715 1.945s4.253 1.412 4.253 3.982c0 1.855-1.402 2.878-3.167 3.212v1.945h-2.715v-1.964c-1.737-0.371-3.222-1.484-3.329-3.465h1.991c0.1 1.068 0.833 1.9 2.697 1.9 2 0 2.444-0.995 2.444-1.62 0-0.841-0.453-1.638-2.715-2.18-2.525-0.607-4.254-1.647-4.254-3.738 0-1.745 1.412-2.886 3.167-3.266v-1.955h2.715v1.982c1.891 0.462 2.841 1.891 2.905 3.448h-2c-0.054-1.131-0.651-1.9-2.262-1.9-1.529 0-2.444 0.688-2.444 1.674z"></path>
</symbol>
</defs>
</svg>
